<?xml version="1.0" standalone="no"?>
<!DOCTYPE svg PUBLIC "-//W3C//DTD SVG 20010904//EN"
 "http://www.w3.org/TR/2001/REC-SVG-20010904/DTD/svg10.dtd">
<svg version="1.0" xmlns="http://www.w3.org/2000/svg"
 width="498.000000pt" height="498.000000pt" viewBox="0 0 498.000000 498.000000"
 preserveAspectRatio="xMidYMid meet">
<metadata>
Created by potrace 1.11, written by Peter Selinger 2001-2013
</metadata>
<g transform="translate(0.000000,498.000000) scale(0.100000,-0.100000)"
fill="#000000" stroke="none">
<path d="M1635 4820 l-99 -99 20 -22 c10 -12 90 -92 177 -178 l157 -157 -74
-74 c-41 -41 -77 -75 -81 -75 -3 0 -85 79 -181 175 l-175 174 -102 -102 -102
-102 173 -173 c96 -94 174 -176 175 -181 1 -4 -32 -41 -72 -82 l-75 -74 -173
173 c-95 94 -177 173 -181 175 -4 1 -51 -42 -105 -96 l-98 -98 177 -178 177
-177 -39 -40 c-84 -88 -106 -109 -113 -109 -4 0 -86 79 -182 174 l-175 175
-102 -102 -102 -102 175 -175 c96 -96 175 -177 175 -181 0 -7 -142 -149 -149
-149 -4 0 -85 79 -181 175 l-175 175 -97 -97 c-54 -54 -98 -101 -98 -104 0 -4
78 -85 174 -181 l175 -174 -114 -115 c-147 -151 -183 -220 -180 -349 3 -112
37 -183 133 -283 l57 -57 -178 -178 -177 -177 102 -102 103 -102 173 175 c96
96 177 174 181 174 3 0 40 -33 80 -74 l74 -74 -177 -178 -177 -178 100 -100
101 -101 178 178 177 177 78 -77 77 -78 -177 -177 -178 -178 102 -102 102
-102 177 178 177 177 74 -73 c40 -40 73 -77 73 -82 0 -5 -76 -85 -170 -179
-93 -93 -170 -172 -170 -175 0 -4 44 -51 97 -104 l98 -98 177 177 178 178 77
-78 78 -77 -178 -178 -177 -177 102 -102 103 -102 177 178 177 178 148 -149
c81 -82 166 -162 188 -177 113 -78 259 -89 385 -29 26 13 95 70 163 137 l118
115 167 -167 168 -168 102 103 102 102 -162 162 c-89 89 -164 166 -165 171 -2
4 31 42 72 83 l75 74 149 -150 c82 -82 158 -157 168 -167 19 -16 23 -14 114
78 52 52 94 99 94 105 0 5 -73 83 -162 173 l-163 163 78 77 78 78 176 -177
177 -177 28 24 c15 13 61 59 102 101 l75 78 -177 177 -177 177 77 78 77 78
162 -163 c90 -89 167 -162 173 -162 9 0 120 103 179 167 l22 25 -167 166 -167
167 74 75 c41 41 78 74 83 72 4 -1 81 -75 171 -165 l162 -163 102 103 102 102
-167 168 -167 168 110 112 c61 62 120 129 132 149 33 55 52 141 47 216 -7 109
-46 177 -178 310 l-111 113 177 178 177 177 -101 101 -101 101 -178 -177 -178
-178 -77 78 -78 78 178 177 178 177 -102 102 -101 101 -178 -178 -177 -177
-78 77 -77 78 177 177 178 178 -101 101 -101 101 -178 -177 -177 -177 -79 78
-78 77 175 174 c96 95 174 176 174 180 0 4 -44 52 -97 105 l-98 98 -177 -177
-178 -178 -77 78 -78 77 178 178 177 177 -98 98 c-53 53 -101 97 -106 97 -4 0
-85 -78 -180 -173 l-173 -173 -114 111 c-144 141 -207 175 -334 180 -116 4
-195 -37 -336 -173 -62 -62 -116 -112 -119 -112 -3 0 -71 66 -152 148 -80 81
-159 159 -175 174 l-29 28 -99 -100z m952 -220 c32 -12 2046 -2020 2069 -2062
21 -40 17 -90 -10 -129 -31 -45 -2016 -2028 -2047 -2045 -32 -18 -84 -17 -117
0 -15 8 -485 473 -1044 1033 -695 696 -1019 1027 -1024 1046 -3 15 -3 44 1 65
6 33 119 150 1023 1055 559 561 1031 1025 1047 1033 37 16 65 17 102 4z"/>
<path d="M2264 4199 c-55 -15 -81 -65 -62 -119 5 -14 270 -286 588 -605 319
-318 579 -581 577 -584 -66 -115 -71 -274 -13 -390 99 -193 342 -276 537 -182
l37 18 83 -83 c92 -93 132 -113 176 -92 40 19 64 71 51 109 -5 16 -48 67 -94
113 l-84 83 27 59 c50 110 37 271 -31 374 -55 83 -157 156 -246 175 -89 20
-196 9 -269 -28 -19 -9 -36 -17 -39 -17 -2 0 -263 259 -581 576 -317 317 -587
581 -601 588 -17 9 -35 10 -56 5z"/>
<path d="M1564 3510 c-32 -13 -54 -50 -54 -89 0 -29 12 -46 92 -127 67 -68 88
-97 81 -106 -19 -26 -43 -104 -49 -164 -26 -244 186 -455 437 -437 29 2 81 15
117 30 l64 25 587 -586 c562 -562 588 -586 623 -586 56 0 91 35 91 89 l0 43
-587 587 -586 586 19 40 c31 65 40 113 37 196 -8 231 -218 406 -453 377 -34
-4 -84 -18 -110 -31 l-48 -23 -90 87 c-92 89 -127 107 -171 89z"/>
<path d="M849 2801 c-30 -31 -37 -67 -18 -102 5 -11 270 -280 588 -597 l578
-577 -23 -50 c-39 -85 -44 -155 -21 -277 9 -45 57 -125 105 -174 117 -118 285
-149 449 -83 l51 21 88 -86 c97 -95 134 -111 179 -82 68 44 58 108 -28 192
-34 34 -72 72 -84 86 l-22 24 25 62 c73 181 4 390 -162 495 -98 61 -232 76
-339 38 -33 -12 -67 -24 -76 -27 -10 -4 -196 175 -590 569 -316 316 -584 579
-596 585 -37 20 -73 14 -104 -17z"/>
</g>
</svg>
